<?xml version="1.0" standalone="no"?>
<!DOCTYPE svg PUBLIC "-//W3C//DTD SVG 1.1//EN" "http://www.w3.org/Graphics/SVG/1.1/DTD/svg11.dtd" >
<svg xmlns="http://www.w3.org/2000/svg" xmlns:xlink="http://www.w3.org/1999/xlink" version="1.1" viewBox="-10 0 3082 1024">
   <path fill="currentColor"
d="M1004 512l-278 397q-12 18 -8.5 38.5t21.5 32.5q17 13 38 9t33 -21l257 -367l256 367q13 17 33.5 21t38.5 -9q17 -12 20.5 -32.5t-8.5 -38.5l-278 -397l278 -397q12 -18 8.5 -39t-20.5 -33q-18 -12 -38.5 -8.5t-33.5 21.5l-256 367l-257 -367q-12 -18 -33 -21.5t-38 8.5
q-18 12 -21.5 33t8.5 39zM2355 417v190q0 80 -28 149q-27 70 -75 122t-111 82q-64 30 -136 30t-135 -30q-64 -30 -111.5 -82t-75.5 -122q-28 -69 -28 -149v-190q0 -80 28 -150q28 -69 75.5 -121t111.5 -82q63 -30 135 -30t136 30q63 30 111 82t75 121q28 70 28 150z
M2253 607v-190q0 -57 -19 -109q-20 -51 -53.5 -89t-78.5 -60q-45 -23 -97 -23q-51 0 -97 23q-45 22 -78.5 60t-52.5 89q-19 52 -19 109v190q0 57 19 108t52.5 89.5t78.5 60.5q46 22 97 22q52 0 97 -22t78.5 -60.5t53.5 -89.5q19 -51 19 -108z" />
</svg>
