<?xml version="1.0" standalone="no"?>
<!DOCTYPE svg PUBLIC "-//W3C//DTD SVG 1.1//EN" "http://www.w3.org/Graphics/SVG/1.1/DTD/svg11.dtd" >
<svg xmlns="http://www.w3.org/2000/svg" xmlns:xlink="http://www.w3.org/1999/xlink" version="1.1" viewBox="-10 0 3082 1024">
   <path fill="currentColor"
d="M720 85q0 -19 13 -32t32 -13h388q48 0 94 20q45 20 81 55.5t58 82.5t22 101q0 52 -21 98q-20 46 -54.5 80.5t-78.5 56.5q-44 21 -90 23l236 356q11 16 7 34.5t-19 28.5q-16 11 -34.5 7t-28.5 -19l-270 -407h-244v382q0 18 -13.5 31.5t-32.5 13.5t-32 -13.5t-13 -31.5
v-854v0zM811 466h342q62 0 113 -49t51 -118q0 -70 -51 -119t-113 -49h-342v335zM2352 417v190q0 80 -27 149q-28 70 -75.5 122t-111.5 82t-135 30q-72 0 -136 -30t-111.5 -82t-75.5 -122q-27 -69 -27 -149v-190q0 -80 27 -150q28 -69 75.5 -121t111.5 -82t136 -30
q71 0 135 30t111.5 82t75.5 121q27 70 27 150zM2250 607v-190q0 -57 -19 -109q-19 -51 -52.5 -89t-79.5 -60q-45 -23 -96 -23q-52 0 -97 23q-46 22 -79 60t-53 89q-19 52 -19 109v190q0 57 19 108q20 51 53 89.5t79 60.5q45 22 97 22q51 0 96 -22q46 -22 79.5 -60.5
t52.5 -89.5t19 -108z" />
</svg>
