<?xml version="1.0" standalone="no"?>
<!DOCTYPE svg PUBLIC "-//W3C//DTD SVG 1.1//EN" "http://www.w3.org/Graphics/SVG/1.1/DTD/svg11.dtd" >
<svg xmlns="http://www.w3.org/2000/svg" xmlns:xlink="http://www.w3.org/1999/xlink" version="1.1" viewBox="-10 0 3082 1024">
   <path fill="currentColor"
d="M2355 417v190q0 80 -28 149q-27 70 -75 122t-111 82q-64 30 -136 30t-135 -30q-64 -30 -111.5 -82t-75.5 -122q-28 -69 -28 -149v-190q0 -80 28 -150q28 -69 75.5 -121t111.5 -82q63 -30 135 -30t136 30q63 30 111 82t75 121q28 70 28 150zM2253 607v-190q0 -57 -19 -109
q-20 -51 -53.5 -89t-78.5 -60q-45 -23 -97 -23q-51 0 -97 23q-45 22 -78.5 60t-52.5 89q-19 52 -19 109v190q0 57 19 108t52.5 89.5t78.5 60.5q46 22 97 22q52 0 97 -22t78.5 -60.5t53.5 -89.5q19 -51 19 -108zM768 136h499l-541 773q-8 12 -9 26.5t6 26.5q6 13 18.5 20.5
t26.5 7.5h597q22 0 37 -15t15 -36q0 -22 -15 -37t-37 -15h-499l541 -772q9 -12 9.5 -26.5t-5.5 -26.5q-7 -13 -19 -20.5t-27 -7.5h-597q-21 0 -36 15t-15 36t15 36t36 15v0z" />
</svg>
