<?xml version="1.0" standalone="no"?>
<!DOCTYPE svg PUBLIC "-//W3C//DTD SVG 1.1//EN" "http://www.w3.org/Graphics/SVG/1.1/DTD/svg11.dtd" >
<svg xmlns="http://www.w3.org/2000/svg" xmlns:xlink="http://www.w3.org/1999/xlink" version="1.1" viewBox="-10 0 1034 1024">
   <path fill="currentColor"
d="M677 521v-138q0 -6 -4.5 -10.5t-10.5 -4.5t-10.5 4.5t-4.5 10.5v138h-70q-5 0 -8.5 2.5t-5.5 6.5t-1.5 8t3.5 8l85 105q3 3 6 4.5t6 1.5q4 0 7 -1.5t5 -4.5l85 -105q3 -4 3.5 -8t-1.5 -8t-5.5 -6.5t-8.5 -2.5h-70v0zM278 387h167l-181 257q-2 4 -2.5 9t1.5 9t6.5 6.5
t8.5 2.5h200q7 0 12 -5t5 -12t-5 -12t-12 -5h-167l180 -257q3 -4 3.5 -9t-1.5 -9q-3 -4 -7 -6.5t-8 -2.5h-200q-7 0 -12 5t-5 12t5 12t12 5v0z" />
</svg>
