<?xml version="1.0" standalone="no"?>
<!DOCTYPE svg PUBLIC "-//W3C//DTD SVG 1.1//EN" "http://www.w3.org/Graphics/SVG/1.1/DTD/svg11.dtd" >
<svg xmlns="http://www.w3.org/2000/svg" xmlns:xlink="http://www.w3.org/1999/xlink" version="1.1" viewBox="-10 0 1034 1024">
   <path fill="currentColor"
d="M164 529h135q7 0 12 -5t5 -12t-5 -12t-12 -5h-135v-68q0 -5 -3 -9.5t-7 -6.5q-5 -2 -9.5 -1.5t-8.5 3.5l-106 86q-2 2 -4 5.5t-2 7.5t2 7.5t4 5.5l106 86q4 3 8.5 3.5t9.5 -1.5q4 -2 7 -6.5t3 -9.5v-68v0zM860 529v68q0 5 3 9.5t7 6.5q5 2 9.5 1.5t8.5 -3.5l106 -86
q3 -2 4.5 -5.5t1.5 -7.5t-1.5 -7.5t-4.5 -5.5l-106 -86q-4 -3 -8.5 -3.5t-9.5 1.5q-4 2 -7 6.5t-3 9.5v68h-135q-7 0 -12 5t-5 12t5 12t12 5h135v0zM629 480v64q0 53 -34.5 90t-82.5 37t-82.5 -37t-34.5 -90v-64q0 -53 34.5 -90t82.5 -37t82.5 37t34.5 90v0zM594 544v-64
q0 -38 -23.5 -65.5t-58.5 -27.5t-58.5 27.5t-23.5 65.5v64q0 38 23.5 65.5t58.5 27.5t58.5 -27.5t23.5 -65.5v0z" />
</svg>
