<?xml version="1.0" standalone="no"?>
<!DOCTYPE svg PUBLIC "-//W3C//DTD SVG 1.1//EN" "http://www.w3.org/Graphics/SVG/1.1/DTD/svg11.dtd" >
<svg xmlns="http://www.w3.org/2000/svg" xmlns:xlink="http://www.w3.org/1999/xlink" version="1.1" viewBox="-10 0 1034 1024">
   <path fill="currentColor"
d="M512 42q97 0 183 37t149.5 100.5t100.5 149.5t37 183t-37 183t-100.5 149.5t-149.5 100.5t-183 37t-183 -37t-149.5 -100.5t-100.5 -149.5t-37 -183t37 -183t100.5 -149.5t149.5 -100.5t183 -37zM512 72q-91 0 -171 35q-80 34 -140 94t-94 140q-35 80 -35 171t35 171
q34 80 94 140t140 94q80 35 171 35t171 -35q80 -34 140 -94t94 -140q35 -80 35 -171t-35 -171q-34 -80 -94 -140t-140 -94q-80 -35 -171 -35v0zM247 527h138q6 0 10.5 -4.5t4.5 -10.5t-4.5 -10.5t-10.5 -4.5h-138v-70q0 -5 -2.5 -8.5t-6.5 -5.5t-8 -1.5t-8 3.5l-105 85
q-3 2 -4 5.5t-1 6.5t1 6.5t4 5.5l105 85q4 3 8 3.5t8 -1.5t6.5 -5.5t2.5 -8.5v-70v0zM527 777v-137q0 -7 -4.5 -11.5t-10.5 -4.5t-10.5 4.5t-4.5 11.5v137h-70q-5 0 -8.5 2.5t-5.5 6.5t-1.5 8t3.5 8l85 105q2 3 5.5 4.5t6.5 1.5q4 0 7 -1.5t5 -4.5l85 -105q3 -4 3.5 -8
t-1.5 -8t-5.5 -6.5t-8.5 -2.5h-70v0zM497 247v138q0 6 4.5 10.5t10.5 4.5t10.5 -4.5t4.5 -10.5v-138h70q5 0 8.5 -2.5t5.5 -6.5t1.5 -8t-3.5 -8l-85 -105q-2 -3 -5 -4.5t-7 -1.5q-3 0 -6.5 1.5t-5.5 4.5l-85 105q-3 4 -3.5 8t1.5 8t5.5 6.5t8.5 2.5h70v0zM777 527v70
q0 5 2.5 8.5t6.5 5.5t8 1.5t8 -3.5l105 -85q3 -2 4.5 -5.5t1.5 -6.5t-1.5 -6.5t-4.5 -5.5l-105 -85q-4 -3 -8 -3.5t-8 1.5t-6.5 5.5t-2.5 8.5v70h-137q-7 0 -11.5 4.5t-4.5 10.5t4.5 10.5t11.5 4.5h137v0z" />
</svg>
